<svg width="22" height="21" viewBox="0 0 22 21" fill="none" xmlns="http://www.w3.org/2000/svg">
<path d="M0.25 21C0.25 18.8783 1.09285 16.8434 2.59315 15.3431C4.09344 13.8429 6.12827 13 8.25 13C10.3717 13 12.4066 13.8429 13.9069 15.3431C15.4071 16.8434 16.25 18.8783 16.25 21H0.25ZM8.25 12C4.935 12 2.25 9.315 2.25 6C2.25 2.685 4.935 0 8.25 0C11.565 0 14.25 2.685 14.25 6C14.25 9.315 11.565 12 8.25 12ZM15.613 14.233C17.1426 14.6261 18.5093 15.4918 19.5183 16.7068C20.5274 17.9218 21.1274 19.4242 21.233 21H18.25C18.25 18.39 17.25 16.014 15.613 14.233ZM13.59 11.957C14.428 11.2075 15.0982 10.2893 15.5566 9.26275C16.015 8.23616 16.2513 7.12429 16.25 6C16.2521 4.63347 15.9026 3.28937 15.235 2.097C16.3676 2.32459 17.3865 2.93737 18.1185 3.8312C18.8504 4.72502 19.2502 5.84473 19.25 7C19.2503 7.71247 19.0982 8.41676 18.8041 9.06567C18.51 9.71459 18.0805 10.2931 17.5446 10.7625C17.0086 11.2319 16.3785 11.5814 15.6964 11.7874C15.0144 11.9934 14.2962 12.0512 13.59 11.957Z" fill="#7B61FF"/>
</svg>
