<svg width="22" height="21" viewBox="0 0 22 21" fill="none" xmlns="http://www.w3.org/2000/svg">
<path d="M0.25 21C0.25 18.8783 1.09285 16.8434 2.59315 15.3431C4.09344 13.8429 6.12827 13 8.25 13C10.3717 13 12.4066 13.8429 13.9069 15.3431C15.4071 16.8434 16.25 18.8783 16.25 21H14.25C14.25 19.4087 13.6179 17.8826 12.4926 16.7574C11.3674 15.6321 9.8413 15 8.25 15C6.6587 15 5.13258 15.6321 4.00736 16.7574C2.88214 17.8826 2.25 19.4087 2.25 21H0.25ZM8.25 12C4.935 12 2.25 9.315 2.25 6C2.25 2.685 4.935 0 8.25 0C11.565 0 14.25 2.685 14.25 6C14.25 9.315 11.565 12 8.25 12ZM8.25 10C10.46 10 12.25 8.21 12.25 6C12.25 3.79 10.46 2 8.25 2C6.04 2 4.25 3.79 4.25 6C4.25 8.21 6.04 10 8.25 10ZM16.534 13.703C17.9393 14.3359 19.132 15.3612 19.9686 16.6557C20.8052 17.9502 21.2502 19.4587 21.25 21H19.25C19.2502 19.844 18.9166 18.7125 18.2891 17.7416C17.6616 16.7707 16.7671 16.0017 15.713 15.527L16.533 13.703H16.534ZM15.846 2.413C16.8535 2.8283 17.715 3.53354 18.321 4.43923C18.9271 5.34492 19.2504 6.41024 19.25 7.5C19.2504 8.87233 18.7377 10.1952 17.8125 11.2088C16.8874 12.2224 15.6167 12.8535 14.25 12.978V10.965C14.9909 10.8589 15.6783 10.518 16.2113 9.99246C16.7443 9.4669 17.0947 8.78432 17.2112 8.04493C17.3276 7.30555 17.204 6.5483 16.8584 5.88435C16.5128 5.22041 15.9634 4.68475 15.291 4.356L15.846 2.413Z" fill="#C4C4C4"/>
</svg>
