<svg width="23" height="22" viewBox="0 0 23 22" fill="none" xmlns="http://www.w3.org/2000/svg">
<path d="M12.5 0L12.501 3.062C14.2632 3.28479 15.9013 4.08743 17.1572 5.34351C18.4131 6.5996 19.2155 8.23775 19.438 10H22.5V12L19.438 12.001C19.2153 13.7631 18.4128 15.401 17.1569 16.6569C15.901 17.9128 14.2631 18.7153 12.501 18.938L12.5 22H10.5V18.938C8.73775 18.7155 7.0996 17.9131 5.84351 16.6572C4.58743 15.4013 3.78479 13.7632 3.562 12.001L0.5 12V10H3.562C3.78459 8.23761 4.58713 6.59934 5.84324 5.34324C7.09934 4.08713 8.73761 3.28459 10.5 3.062V0H12.5ZM11.5 5C9.9087 5 8.38258 5.63214 7.25736 6.75736C6.13214 7.88258 5.5 9.4087 5.5 11C5.5 12.5913 6.13214 14.1174 7.25736 15.2426C8.38258 16.3679 9.9087 17 11.5 17C13.0913 17 14.6174 16.3679 15.7426 15.2426C16.8679 14.1174 17.5 12.5913 17.5 11C17.5 9.4087 16.8679 7.88258 15.7426 6.75736C14.6174 5.63214 13.0913 5 11.5 5ZM11.5 9C12.0304 9 12.5391 9.21071 12.9142 9.58579C13.2893 9.96086 13.5 10.4696 13.5 11C13.5 11.5304 13.2893 12.0391 12.9142 12.4142C12.5391 12.7893 12.0304 13 11.5 13C10.9696 13 10.4609 12.7893 10.0858 12.4142C9.71071 12.0391 9.5 11.5304 9.5 11C9.5 10.4696 9.71071 9.96086 10.0858 9.58579C10.4609 9.21071 10.9696 9 11.5 9Z" fill="#FFA02A"/>
</svg>
