<svg width="21" height="20" viewBox="0 0 21 20" fill="none" xmlns="http://www.w3.org/2000/svg">
<path d="M10.5 18C12.6217 18 14.6566 17.1571 16.1569 15.6569C17.6571 14.1566 18.5 12.1217 18.5 10C18.5 7.87827 17.6571 5.84344 16.1569 4.34315C14.6566 2.84285 12.6217 2 10.5 2C8.37827 2 6.34344 2.84285 4.84315 4.34315C3.34285 5.84344 2.5 7.87827 2.5 10C2.5 12.1217 3.34285 14.1566 4.84315 15.6569C6.34344 17.1571 8.37827 18 10.5 18ZM10.5 20C4.977 20 0.5 15.523 0.5 10C0.5 4.477 4.977 0 10.5 0C16.023 0 20.5 4.477 20.5 10C20.5 15.523 16.023 20 10.5 20ZM10.5 14C11.5609 14 12.5783 13.5786 13.3284 12.8284C14.0786 12.0783 14.5 11.0609 14.5 10C14.5 8.93913 14.0786 7.92172 13.3284 7.17157C12.5783 6.42143 11.5609 6 10.5 6C9.43913 6 8.42172 6.42143 7.67157 7.17157C6.92143 7.92172 6.5 8.93913 6.5 10C6.5 11.0609 6.92143 12.0783 7.67157 12.8284C8.42172 13.5786 9.43913 14 10.5 14ZM10.5 16C8.9087 16 7.38258 15.3679 6.25736 14.2426C5.13214 13.1174 4.5 11.5913 4.5 10C4.5 8.4087 5.13214 6.88258 6.25736 5.75736C7.38258 4.63214 8.9087 4 10.5 4C12.0913 4 13.6174 4.63214 14.7426 5.75736C15.8679 6.88258 16.5 8.4087 16.5 10C16.5 11.5913 15.8679 13.1174 14.7426 14.2426C13.6174 15.3679 12.0913 16 10.5 16ZM10.5 12C9.96957 12 9.46086 11.7893 9.08579 11.4142C8.71071 11.0391 8.5 10.5304 8.5 10C8.5 9.46957 8.71071 8.96086 9.08579 8.58579C9.46086 8.21071 9.96957 8 10.5 8C11.0304 8 11.5391 8.21071 11.9142 8.58579C12.2893 8.96086 12.5 9.46957 12.5 10C12.5 10.5304 12.2893 11.0391 11.9142 11.4142C11.5391 11.7893 11.0304 12 10.5 12Z" fill="#007AFF"/>
</svg>
