<svg width="19" height="19" viewBox="0 0 19 19" fill="none" xmlns="http://www.w3.org/2000/svg">
<path d="M18.75 18.0003C18.75 18.2655 18.6446 18.5198 18.4571 18.7074C18.2696 18.8949 18.0152 19.0003 17.75 19.0003H1.75C1.48478 19.0003 1.23043 18.8949 1.04289 18.7074C0.855357 18.5198 0.75 18.2655 0.75 18.0003V7.49027C0.749895 7.33788 0.784617 7.18749 0.851516 7.05057C0.918415 6.91365 1.01572 6.79384 1.136 6.70027L9.136 0.478272C9.31154 0.341717 9.5276 0.267578 9.75 0.267578C9.9724 0.267578 10.1885 0.341717 10.364 0.478272L18.364 6.70027C18.4843 6.79384 18.5816 6.91365 18.6485 7.05057C18.7154 7.18749 18.7501 7.33788 18.75 7.49027V18.0003ZM4.75 13.0003V15.0003H14.75V13.0003H4.75Z" fill="#7B61FF"/>
</svg>
